<svg xmlns="http://www.w3.org/2000/svg" viewBox="0 0 64 64">
  <!-- ChatGPT: black circle with white stylised aperture/knot -->
  <circle cx="32" cy="32" r="30" fill="#000"/>
  <g fill="none" stroke="#fff" stroke-width="3" stroke-linecap="round">
    <path d="M32 12 a14 14 0 0 1 12.1 7 l-17.6 10.2"/>
    <path d="M44.1 19 a14 14 0 0 1 0 14 l-17.6-10.2"/>
    <path d="M44.1 33 a14 14 0 0 1-12.1 7 l0-20.4"/>
    <path d="M32 40 a14 14 0 0 1-12.1-7 l17.6-10.2"/>
    <path d="M19.9 33 a14 14 0 0 1 0-14 l17.6 10.2"/>
    <path d="M19.9 19 a14 14 0 0 1 12.1-7 l0 20.4"/>
  </g>
</svg>
