<svg xmlns="http://www.w3.org/2000/svg" viewBox="0 0 48 48" fill="none">
  <!-- Anthropic Claude pinwheel/starburst icon (simplified) -->
  <circle cx="24" cy="24" r="22" fill="#da7756"/>
  <path d="M24 8 L27 20 L24 16 L21 20 Z" fill="#fff"/>
  <path d="M24 40 L21 28 L24 32 L27 28 Z" fill="#fff"/>
  <path d="M8 24 L20 21 L16 24 L20 27 Z" fill="#fff"/>
  <path d="M40 24 L28 27 L32 24 L28 21 Z" fill="#fff"/>
  <path d="M12.3 12.3 L21.7 19.1 L18.1 19.1 L19.1 21.7 Z" fill="#fff"/>
  <path d="M35.7 35.7 L26.3 28.9 L29.9 28.9 L28.9 26.3 Z" fill="#fff"/>
  <path d="M35.7 12.3 L28.9 21.7 L28.9 18.1 L26.3 19.1 Z" fill="#fff"/>
  <path d="M12.3 35.7 L19.1 26.3 L19.1 29.9 L21.7 28.9 Z" fill="#fff"/>
</svg>
